PathFileType	4	(X/Y/Z)	OpenSim_Sub04_EMGBaseline_Magnet.trc
DataRate	CameraRate	NumFrames	NumMarkers	Units	OrigDataRate	OrigDataStartFrame	OrigNumFrames
100	100	20	8	m	100	993	7941
Frame#	Time	torso_imu_offset_imu	pelvis_imu_offset_imu	tibia_r_imu_offset_imu	femur_r_imu_offset_imu	tibia_l_imu_offset_imu	femur_l_imu_offset_imu	toes_r_imu_offset_imu	toes_l_imu_offset_imu
				X1	Y1	Z1	X2	Y2	Z2	X3	Y3	Z3	X4	Y4	Z4	X5	Y5	Z5	X6	Y6	Z6	X7	Y7	Z7	X8		Y8	Z8	

993	9.92000000	0.91089867	0.21046582	-0.18870045	-0.62705542	0.12798208	-0.66099682	-0.61190498	-0.49612318	-0.12319399	-0.82205430	-0.15398976	0.14009875	-0.41851835	0.67043367	0.25193822	-0.60826822	0.39092278	0.40735720	-0.69878190	-0.10668785	-0.38457287	-0.72907804	-0.33565780	-0.13239223
994	9.93000000	0.91058560	0.21170708	-0.19056408	-0.62699661	0.12461628	-0.66079787	-0.60835593	-0.49996368	-0.12280083	-0.81816239	-0.15976892	0.13668575	-0.40507180	0.67825692	0.24775080	-0.61138518	0.38822763	0.40262186	-0.69930204	-0.11135961	-0.37969018	-0.73967708	-0.33338448	-0.10911205
995	9.94000000	0.91104469	0.20528700	-0.19236177	-0.62819091	0.12660064	-0.66114569	-0.60496331	-0.50691871	-0.11621043	-0.81766521	-0.16212551	0.14661498	-0.38437137	0.69228325	0.24841456	-0.62087795	0.38324577	0.39459363	-0.70166753	-0.12061415	-0.37043703	-0.74410943	-0.32630848	-0.08915887
996	9.95000000	0.91042909	0.20336150	-0.19182097	-0.63423876	0.12438417	-0.65991625	-0.59659023	-0.51556618	-0.11568641	-0.81384535	-0.16456550	0.14690465	-0.37348795	0.70119067	0.24336598	-0.62859246	0.37691492	0.38508055	-0.70340345	-0.12250025	-0.36663810	-0.75069812	-0.32066940	-0.06133481
997	9.96000000	0.90926262	0.19938986	-0.19280773	-0.63285827	0.12785401	-0.65663994	-0.59491712	-0.52657101	-0.10399903	-0.81337373	-0.16216487	0.14653647	-0.35547501	0.70377894	0.24372046	-0.63634383	0.37588796	0.38566511	-0.70582790	-0.12968361	-0.35251662	-0.75229549	-0.31876193	-0.02323817
998	9.97000000	0.91086247	0.19957132	-0.19589528	-0.63230539	0.13416153	-0.65791946	-0.58869043	-0.53571658	-0.09665220	-0.81033487	-0.16644670	0.15560690	-0.33920794	0.71343698	0.24676570	-0.64559065	0.37360610	0.38009421	-0.70940884	-0.13738085	-0.34874699	-0.75246989	-0.31417644	0.01086359
999	9.98000000	0.90925015	0.20060202	-0.19161001	-0.63594189	0.13386882	-0.65189214	-0.57578879	-0.54034931	-0.10438762	-0.81387493	-0.15958430	0.15689909	-0.31713998	0.72155838	0.25423296	-0.64882146	0.36008152	0.37313521	-0.70842525	-0.13763556	-0.34346791	-0.75276548	-0.30687017	0.04821009
1000	9.99000000	0.91396698	0.20371650	-0.19168064	-0.63388480	0.12862382	-0.65675849	-0.56840826	-0.55121056	-0.09234953	-0.80968008	-0.16492959	0.16313612	-0.29935036	0.72842263	0.25181270	-0.66448261	0.35158318	0.36802767	-0.70749750	-0.13447944	-0.34295582	-0.75285892	-0.29624833	0.08358885
1001	10.00000000	0.91499924	0.19942223	-0.19025048	-0.63991567	0.13056856	-0.65675701	-0.56691710	-0.55858430	-0.08268115	-0.80846867	-0.16609114	0.16793561	-0.28010011	0.73724914	0.24762336	-0.67128039	0.34037200	0.36367789	-0.71142820	-0.13932291	-0.33637425	-0.74987520	-0.28756386	0.12819086
1002	10.01000000	0.91286549	0.20284810	-0.19422319	-0.64365499	0.12604190	-0.65879427	-0.56271376	-0.56290134	-0.08109724	-0.80036840	-0.18331912	0.16428067	-0.26470471	0.74334055	0.25006268	-0.67518545	0.32890254	0.35268251	-0.71040168	-0.13998388	-0.33548323	-0.74365396	-0.27636951	0.16320739
1003	10.02000000	0.91319723	0.20319474	-0.19182867	-0.63724267	0.12386573	-0.65867127	-0.55366033	-0.56872575	-0.08537190	-0.80406854	-0.18588733	0.17072776	-0.24684085	0.74802076	0.25124873	-0.68236108	0.31636481	0.35699974	-0.70927911	-0.13873293	-0.33777379	-0.73982654	-0.26555958	0.19942145
1004	10.03000000	0.91665607	0.20040564	-0.19186467	-0.63784273	0.11960115	-0.65728852	-0.55610846	-0.57341929	-0.09083143	-0.80685164	-0.20015304	0.17276778	-0.22797434	0.75455062	0.25437390	-0.69313769	0.30747809	0.34642664	-0.71069836	-0.14375714	-0.33286545	-0.73249437	-0.25163538	0.23498834
1005	10.04000000	0.92153540	0.20309566	-0.18883893	-0.63768135	0.11827731	-0.65461025	-0.55268630	-0.57839770	-0.08372846	-0.80027562	-0.20407209	0.16463737	-0.20695348	0.75841464	0.26253698	-0.70117171	0.29685234	0.33814671	-0.70882721	-0.14663743	-0.32191841	-0.72553953	-0.23373008	0.26805610
1006	10.05000000	0.91664727	0.19503036	-0.18512668	-0.63759992	0.11736530	-0.66396428	-0.54608327	-0.57624521	-0.09228275	-0.79430849	-0.21479452	0.16812055	-0.19381053	0.76015850	0.26329667	-0.70689067	0.28714383	0.33194348	-0.71130357	-0.14418082	-0.32570531	-0.72347886	-0.21657890	0.29555282
1007	10.06000000	0.91513714	0.19824362	-0.18766740	-0.63767516	0.11419148	-0.66179718	-0.54049923	-0.58233209	-0.08687242	-0.79954489	-0.22305540	0.16827488	-0.17862669	0.75988597	0.26726020	-0.71105008	0.27196098	0.32798017	-0.71044548	-0.14158954	-0.32621291	-0.71476097	-0.19474610	0.32173732
1008	10.07000000	0.91564460	0.19737673	-0.18796955	-0.63691098	0.11578807	-0.65801172	-0.53759227	-0.58975079	-0.09037585	-0.79196833	-0.23004082	0.16724588	-0.16735138	0.76037519	0.27768435	-0.71712544	0.26191992	0.32293777	-0.70922850	-0.13887492	-0.32268815	-0.70999556	-0.17071474	0.34739215
1009	10.08000000	0.91772812	0.19501416	-0.18874717	-0.63327180	0.11174141	-0.66152989	-0.53193203	-0.59475633	-0.09382558	-0.79192064	-0.23287754	0.16160473	-0.15429794	0.76241694	0.27788794	-0.72461034	0.25295180	0.31752494	-0.71086089	-0.13928085	-0.32542699	-0.70898376	-0.16003721	0.34576260
1010	10.09000000	0.91763115	0.19370559	-0.18529004	-0.63918189	0.11509821	-0.66503112	-0.53093231	-0.60133219	-0.09279914	-0.79175475	-0.24026400	0.16368555	-0.14624727	0.76207418	0.27550693	-0.73397307	0.24122791	0.31656996	-0.70905897	-0.13253075	-0.32415184	-0.71214098	-0.14936528	0.34205416
1011	10.10000000	0.92137006	0.19273664	-0.18638538	-0.64376189	0.11798820	-0.66246076	-0.52217779	-0.59989799	-0.09092743	-0.78385248	-0.24034119	0.15930743	-0.13596086	0.76254593	0.27282539	-0.73588245	0.22522310	0.30832180	-0.71252899	-0.13919342	-0.32060006	-0.72139102	-0.15085566	0.33825285
1012	10.11000000	0.92891752	0.18612165	-0.17992907	-0.63536796	0.11270338	-0.66332029	-0.51920709	-0.60955380	-0.09056522	-0.78467573	-0.24729923	0.16354100	-0.12746566	0.76474539	0.26805258	-0.74119940	0.21192933	0.30955059	-0.71730104	-0.13855410	-0.32034553	-0.73161320	-0.13842481	0.32316520
